<?xml version="1.0" encoding="iso-8859-1"?>
<!-- Generator: Adobe Illustrator 19.0.0, SVG Export Plug-In . SVG Version: 6.00 Build 0)  -->
<svg xmlns="http://www.w3.org/2000/svg" xmlns:xlink="http://www.w3.org/1999/xlink" version="1.1" id="Layer_1" x="0px" y="0px" viewBox="0 0 512 512" style="enable-background:new 0 0 512 512;" xml:space="preserve" width="512px" height="512px">
<g>
	<g>
		<path d="M482.442,177.232H206.769v-68.923c0-3.774-2.154-7.216-5.548-8.861c-3.394-1.654-7.433-1.202-10.404,1.135L3.74,248.275    C1.385,250.141,0,252.987,0,256.001c0,3.014,1.385,5.86,3.74,7.726L190.817,411.42c1.779,1.399,3.933,2.12,6.106,2.12    c1.462,0,2.933-0.322,4.298-0.986c3.394-1.644,5.548-5.087,5.548-8.861V334.77h275.673c16.298,0,29.558-13.279,29.558-29.596    v-98.346C512,190.511,498.74,177.232,482.442,177.232z M492.308,305.174c0,5.461-4.423,9.904-9.865,9.904H196.923    c-5.442,0-9.846,4.409-9.846,9.846v58.452L25.74,256.001l161.337-127.375v58.452c0,5.438,4.404,9.846,9.846,9.846h285.519    c5.442,0,9.865,4.442,9.865,9.904V305.174z" fill="#91DC5A"/>
	</g>
</g>
<g>
</g>
<g>
</g>
<g>
</g>
<g>
</g>
<g>
</g>
<g>
</g>
<g>
</g>
<g>
</g>
<g>
</g>
<g>
</g>
<g>
</g>
<g>
</g>
<g>
</g>
<g>
</g>
<g>
</g>
</svg>
