<?xml version="1.0" standalone="no"?>
<!DOCTYPE svg PUBLIC "-//W3C//DTD SVG 20010904//EN"
  "http://www.w3.org/TR/2001/REC-SVG-20010904/DTD/svg10.dtd">
<svg width="24" height="24">
  <circle cx="0" cy="0" r="1" fill="none"/>
  <circle cx="1" cy="0" r="1" fill="none"/>
  <circle cx="2" cy="0" r="1" fill="none"/>
  <circle cx="3" cy="0" r="1" fill="none"/>
  <circle cx="4" cy="0" r="1" fill="none"/>
  <circle cx="5" cy="0" r="1" fill="none"/>
  <circle cx="6" cy="0" r="1" fill="none"/>
  <circle cx="7" cy="0" r="1" fill="none"/>
  <circle cx="8" cy="0" r="1" fill="none"/>
  <circle cx="9" cy="0" r="1" fill="none"/>
  <circle cx="10" cy="0" r="1" fill="none"/>
  <circle cx="11" cy="0" r="1" fill="none"/>
  <circle cx="12" cy="0" r="1" fill="none"/>
  <circle cx="13" cy="0" r="1" fill="none"/>
  <circle cx="14" cy="0" r="1" fill="none"/>
  <circle cx="15" cy="0" r="1" fill="none"/>
  <circle cx="16" cy="0" r="1" fill="none"/>
  <circle cx="17" cy="0" r="1" fill="none"/>
  <circle cx="18" cy="0" r="1" fill="none"/>
  <circle cx="19" cy="0" r="1" fill="none"/>
  <circle cx="20" cy="0" r="1" fill="none"/>
  <circle cx="21" cy="0" r="1" fill="none"/>
  <circle cx="22" cy="0" r="1" fill="none"/>
  <circle cx="23" cy="0" r="1" fill="none"/>
  <circle cx="0" cy="1" r="1" fill="rgba(255,101,106,0.164706)"/>
  <circle cx="1" cy="1" r="1" fill="rgba(255,101,109,0.854902)"/>
  <circle cx="2" cy="1" r="1" fill="rgba(255,120,125,1)"/>
  <circle cx="3" cy="1" r="1" fill="rgba(255,127,130,1)"/>
  <circle cx="4" cy="1" r="1" fill="rgba(254,103,109,1)"/>
  <circle cx="5" cy="1" r="1" fill="rgba(253,99,106,0.72549)"/>
  <circle cx="6" cy="1" r="1" fill="rgba(251,93,100,0.00392157)"/>
  <circle cx="7" cy="1" r="1" fill="none"/>
  <circle cx="8" cy="1" r="1" fill="none"/>
  <circle cx="9" cy="1" r="1" fill="none"/>
  <circle cx="10" cy="1" r="1" fill="none"/>
  <circle cx="11" cy="1" r="1" fill="none"/>
  <circle cx="12" cy="1" r="1" fill="none"/>
  <circle cx="13" cy="1" r="1" fill="none"/>
  <circle cx="14" cy="1" r="1" fill="none"/>
  <circle cx="15" cy="1" r="1" fill="none"/>
  <circle cx="16" cy="1" r="1" fill="none"/>
  <circle cx="17" cy="1" r="1" fill="none"/>
  <circle cx="18" cy="1" r="1" fill="none"/>
  <circle cx="19" cy="1" r="1" fill="rgba(219,96,101,0.188235)"/>
  <circle cx="20" cy="1" r="1" fill="rgba(215,94,98,0.588235)"/>
  <circle cx="21" cy="1" r="1" fill="rgba(211,92,94,0.85098)"/>
  <circle cx="22" cy="1" r="1" fill="rgba(208,89,92,0.843137)"/>
  <circle cx="23" cy="1" r="1" fill="rgba(204,92,93,0.772549)"/>
  <circle cx="0" cy="2" r="1" fill="rgba(255,103,110,0.92549)"/>
  <circle cx="1" cy="2" r="1" fill="rgba(255,189,177,1)"/>
  <circle cx="2" cy="2" r="1" fill="rgba(255,205,188,1)"/>
  <circle cx="3" cy="2" r="1" fill="rgba(255,197,180,1)"/>
  <circle cx="4" cy="2" r="1" fill="rgba(255,203,189,1)"/>
  <circle cx="5" cy="2" r="1" fill="rgba(253,156,151,1)"/>
  <circle cx="6" cy="2" r="1" fill="rgba(251,101,107,0.968627)"/>
  <circle cx="7" cy="2" r="1" fill="rgba(249,93,100,0.25098)"/>
  <circle cx="8" cy="2" r="1" fill="none"/>
  <circle cx="9" cy="2" r="1" fill="none"/>
  <circle cx="10" cy="2" r="1" fill="none"/>
  <circle cx="11" cy="2" r="1" fill="none"/>
  <circle cx="12" cy="2" r="1" fill="none"/>
  <circle cx="13" cy="2" r="1" fill="none"/>
  <circle cx="14" cy="2" r="1" fill="none"/>
  <circle cx="15" cy="2" r="1" fill="none"/>
  <circle cx="16" cy="2" r="1" fill="none"/>
  <circle cx="17" cy="2" r="1" fill="rgba(224,91,98,0.427451)"/>
  <circle cx="18" cy="2" r="1" fill="rgba(219,89,92,0.905882)"/>
  <circle cx="19" cy="2" r="1" fill="rgba(226,104,108,1)"/>
  <circle cx="20" cy="2" r="1" fill="rgba(242,141,140,1)"/>
  <circle cx="21" cy="2" r="1" fill="rgba(250,167,159,1)"/>
  <circle cx="22" cy="2" r="1" fill="rgba(255,211,197,1)"/>
  <circle cx="23" cy="2" r="1" fill="rgba(230,126,121,1)"/>
  <circle cx="0" cy="3" r="1" fill="rgba(255,147,144,1)"/>
  <circle cx="1" cy="3" r="1" fill="rgba(255,182,158,1)"/>
  <circle cx="2" cy="3" r="1" fill="rgba(255,159,131,1)"/>
  <circle cx="3" cy="3" r="1" fill="rgba(255,152,128,1)"/>
  <circle cx="4" cy="3" r="1" fill="rgba(255,149,125,1)"/>
  <circle cx="5" cy="3" r="1" fill="rgba(255,165,149,1)"/>
  <circle cx="6" cy="3" r="1" fill="rgba(255,179,169,1)"/>
  <circle cx="7" cy="3" r="1" fill="rgba(251,108,112,1)"/>
  <circle cx="8" cy="3" r="1" fill="rgba(245,88,95,0.486275)"/>
  <circle cx="9" cy="3" r="1" fill="none"/>
  <circle cx="10" cy="3" r="1" fill="none"/>
  <circle cx="11" cy="3" r="1" fill="none"/>
  <circle cx="12" cy="3" r="1" fill="none"/>
  <circle cx="13" cy="3" r="1" fill="none"/>
  <circle cx="14" cy="3" r="1" fill="none"/>
  <circle cx="15" cy="3" r="1" fill="rgba(229,87,93,0.25098)"/>
  <circle cx="16" cy="3" r="1" fill="rgba(225,87,91,0.905882)"/>
  <circle cx="17" cy="3" r="1" fill="rgba(237,115,120,1)"/>
  <circle cx="18" cy="3" r="1" fill="rgba(253,155,161,1)"/>
  <circle cx="19" cy="3" r="1" fill="rgba(255,172,170,1)"/>
  <circle cx="20" cy="3" r="1" fill="rgba(255,157,151,1)"/>
  <circle cx="21" cy="3" r="1" fill="rgba(251,128,118,1)"/>
  <circle cx="22" cy="3" r="1" fill="rgba(227,91,86,0.839216)"/>
  <circle cx="23" cy="3" r="1" fill="rgba(200,71,73,0.145098)"/>
  <circle cx="0" cy="4" r="1" fill="rgba(255,117,113,1)"/>
  <circle cx="1" cy="4" r="1" fill="rgba(255,165,137,1)"/>
  <circle cx="2" cy="4" r="1" fill="rgba(255,158,131,1)"/>
  <circle cx="3" cy="4" r="1" fill="rgba(255,152,127,1)"/>
  <circle cx="4" cy="4" r="1" fill="rgba(255,148,124,1)"/>
  <circle cx="5" cy="4" r="1" fill="rgba(255,139,118,1)"/>
  <circle cx="6" cy="4" r="1" fill="rgba(255,141,120,1)"/>
  <circle cx="7" cy="4" r="1" fill="rgba(255,176,161,1)"/>
  <circle cx="8" cy="4" r="1" fill="rgba(250,120,121,1)"/>
  <circle cx="9" cy="4" r="1" fill="rgba(243,82,89,0.694118)"/>
  <circle cx="10" cy="4" r="1" fill="rgba(242,85,92,0.00784314)"/>
  <circle cx="11" cy="4" r="1" fill="none"/>
  <circle cx="12" cy="4" r="1" fill="none"/>
  <circle cx="13" cy="4" r="1" fill="none"/>
  <circle cx="14" cy="4" r="1" fill="rgba(230,82,85,0.768627)"/>
  <circle cx="15" cy="4" r="1" fill="rgba(237,101,105,1)"/>
  <circle cx="16" cy="4" r="1" fill="rgba(254,152,154,1)"/>
  <circle cx="17" cy="4" r="1" fill="rgba(255,160,167,1)"/>
  <circle cx="18" cy="4" r="1" fill="rgba(255,123,125,1)"/>
  <circle cx="19" cy="4" r="1" fill="rgba(255,96,96,1)"/>
  <circle cx="20" cy="4" r="1" fill="rgba(236,87,87,1)"/>
  <circle cx="21" cy="4" r="1" fill="rgba(204,69,72,0.392157)"/>
  <circle cx="22" cy="4" r="1" fill="none"/>
  <circle cx="23" cy="4" r="1" fill="none"/>
  <circle cx="0" cy="5" r="1" fill="rgba(255,78,87,0.501961)"/>
  <circle cx="1" cy="5" r="1" fill="rgba(255,148,125,1)"/>
  <circle cx="2" cy="5" r="1" fill="rgba(255,156,128,1)"/>
  <circle cx="3" cy="5" r="1" fill="rgba(255,148,123,1)"/>
  <circle cx="4" cy="5" r="1" fill="rgba(255,144,119,1)"/>
  <circle cx="5" cy="5" r="1" fill="rgba(255,137,115,1)"/>
  <circle cx="6" cy="5" r="1" fill="rgba(255,132,111,1)"/>
  <circle cx="7" cy="5" r="1" fill="rgba(255,124,102,1)"/>
  <circle cx="8" cy="5" r="1" fill="rgba(255,163,149,1)"/>
  <circle cx="9" cy="5" r="1" fill="rgba(252,137,137,1)"/>
  <circle cx="10" cy="5" r="1" fill="rgba(242,77,83,0.898039)"/>
  <circle cx="11" cy="5" r="1" fill="none"/>
  <circle cx="12" cy="5" r="1" fill="rgba(235,77,83,0.223529)"/>
  <circle cx="13" cy="5" r="1" fill="rgba(236,81,87,1)"/>
  <circle cx="14" cy="5" r="1" fill="rgba(247,125,128,1)"/>
  <circle cx="15" cy="5" r="1" fill="rgba(255,166,170,1)"/>
  <circle cx="16" cy="5" r="1" fill="rgba(255,112,119,1)"/>
  <circle cx="17" cy="5" r="1" fill="rgba(255,86,92,1)"/>
  <circle cx="18" cy="5" r="1" fill="rgba(255,84,87,1)"/>
  <circle cx="19" cy="5" r="1" fill="rgba(222,75,78,0.756863)"/>
  <circle cx="20" cy="5" r="1" fill="none"/>
  <circle cx="21" cy="5" r="1" fill="none"/>
  <circle cx="22" cy="5" r="1" fill="none"/>
  <circle cx="23" cy="5" r="1" fill="none"/>
  <circle cx="0" cy="6" r="1" fill="none"/>
  <circle cx="1" cy="6" r="1" fill="rgba(255,79,84,0.603922)"/>
  <circle cx="2" cy="6" r="1" fill="rgba(255,131,111,1)"/>
  <circle cx="3" cy="6" r="1" fill="rgba(255,148,120,1)"/>
  <circle cx="4" cy="6" r="1" fill="rgba(255,141,115,1)"/>
  <circle cx="5" cy="6" r="1" fill="rgba(255,133,111,1)"/>
  <circle cx="6" cy="6" r="1" fill="rgba(255,129,108,1)"/>
  <circle cx="7" cy="6" r="1" fill="rgba(255,123,102,1)"/>
  <circle cx="8" cy="6" r="1" fill="rgba(255,115,99,1)"/>
  <circle cx="9" cy="6" r="1" fill="rgba(255,138,125,1)"/>
  <circle cx="10" cy="6" r="1" fill="rgba(252,133,132,1)"/>
  <circle cx="11" cy="6" r="1" fill="rgba(238,74,82,0.913725)"/>
  <circle cx="12" cy="6" r="1" fill="rgba(239,84,91,1)"/>
  <circle cx="13" cy="6" r="1" fill="rgba(255,157,159,1)"/>
  <circle cx="14" cy="6" r="1" fill="rgba(255,141,143,1)"/>
  <circle cx="15" cy="6" r="1" fill="rgba(255,85,91,1)"/>
  <circle cx="16" cy="6" r="1" fill="rgba(255,82,91,1)"/>
  <circle cx="17" cy="6" r="1" fill="rgba(248,75,81,1)"/>
  <circle cx="18" cy="6" r="1" fill="rgba(214,67,72,0.458824)"/>
  <circle cx="19" cy="6" r="1" fill="none"/>
  <circle cx="20" cy="6" r="1" fill="none"/>
  <circle cx="21" cy="6" r="1" fill="none"/>
  <circle cx="22" cy="6" r="1" fill="none"/>
  <circle cx="23" cy="6" r="1" fill="none"/>
  <circle cx="0" cy="7" r="1" fill="none"/>
  <circle cx="1" cy="7" r="1" fill="none"/>
  <circle cx="2" cy="7" r="1" fill="rgba(255,68,79,0.227451)"/>
  <circle cx="3" cy="7" r="1" fill="rgba(255,92,88,0.807843)"/>
  <circle cx="4" cy="7" r="1" fill="rgba(255,126,106,1)"/>
  <circle cx="5" cy="7" r="1" fill="rgba(255,133,108,1)"/>
  <circle cx="6" cy="7" r="1" fill="rgba(255,126,104,1)"/>
  <circle cx="7" cy="7" r="1" fill="rgba(255,120,99,1)"/>
  <circle cx="8" cy="7" r="1" fill="rgba(255,114,97,1)"/>
  <circle cx="9" cy="7" r="1" fill="rgba(255,106,93,1)"/>
  <circle cx="10" cy="7" r="1" fill="rgba(255,114,105,1)"/>
  <circle cx="11" cy="7" r="1" fill="rgba(255,156,154,1)"/>
  <circle cx="12" cy="7" r="1" fill="rgba(255,168,167,1)"/>
  <circle cx="13" cy="7" r="1" fill="rgba(255,108,111,1)"/>
  <circle cx="14" cy="7" r="1" fill="rgba(255,83,88,1)"/>
  <circle cx="15" cy="7" r="1" fill="rgba(255,86,91,1)"/>
  <circle cx="16" cy="7" r="1" fill="rgba(247,72,79,1)"/>
  <circle cx="17" cy="7" r="1" fill="rgba(218,65,70,0.298039)"/>
  <circle cx="18" cy="7" r="1" fill="none"/>
  <circle cx="19" cy="7" r="1" fill="none"/>
  <circle cx="20" cy="7" r="1" fill="none"/>
  <circle cx="21" cy="7" r="1" fill="none"/>
  <circle cx="22" cy="7" r="1" fill="none"/>
  <circle cx="23" cy="7" r="1" fill="none"/>
  <circle cx="0" cy="8" r="1" fill="none"/>
  <circle cx="1" cy="8" r="1" fill="none"/>
  <circle cx="2" cy="8" r="1" fill="none"/>
  <circle cx="3" cy="8" r="1" fill="none"/>
  <circle cx="4" cy="8" r="1" fill="rgba(255,58,69,0.364706)"/>
  <circle cx="5" cy="8" r="1" fill="rgba(255,91,84,1)"/>
  <circle cx="6" cy="8" r="1" fill="rgba(255,122,99,1)"/>
  <circle cx="7" cy="8" r="1" fill="rgba(255,121,98,1)"/>
  <circle cx="8" cy="8" r="1" fill="rgba(255,112,95,1)"/>
  <circle cx="9" cy="8" r="1" fill="rgba(255,108,95,1)"/>
  <circle cx="10" cy="8" r="1" fill="rgba(255,82,73,1)"/>
  <circle cx="11" cy="8" r="1" fill="rgba(255,79,75,1)"/>
  <circle cx="12" cy="8" r="1" fill="rgba(255,66,65,1)"/>
  <circle cx="13" cy="8" r="1" fill="rgba(255,36,37,1)"/>
  <circle cx="14" cy="8" r="1" fill="rgba(255,36,38,1)"/>
  <circle cx="15" cy="8" r="1" fill="rgba(234,13,19,1)"/>
  <circle cx="16" cy="8" r="1" fill="rgba(203,3,8,0.129412)"/>
  <circle cx="17" cy="8" r="1" fill="none"/>
  <circle cx="18" cy="8" r="1" fill="none"/>
  <circle cx="19" cy="8" r="1" fill="none"/>
  <circle cx="20" cy="8" r="1" fill="none"/>
  <circle cx="21" cy="8" r="1" fill="none"/>
  <circle cx="22" cy="8" r="1" fill="none"/>
  <circle cx="23" cy="8" r="1" fill="none"/>
  <circle cx="0" cy="9" r="1" fill="none"/>
  <circle cx="1" cy="9" r="1" fill="none"/>
  <circle cx="2" cy="9" r="1" fill="none"/>
  <circle cx="3" cy="9" r="1" fill="none"/>
  <circle cx="4" cy="9" r="1" fill="none"/>
  <circle cx="5" cy="9" r="1" fill="none"/>
  <circle cx="6" cy="9" r="1" fill="rgba(249,50,58,0.572549)"/>
  <circle cx="7" cy="9" r="1" fill="rgba(255,58,46,1)"/>
  <circle cx="8" cy="9" r="1" fill="rgba(255,56,38,1)"/>
  <circle cx="9" cy="9" r="1" fill="rgba(255,37,27,1)"/>
  <circle cx="10" cy="9" r="1" fill="rgba(255,36,29,1)"/>
  <circle cx="11" cy="9" r="1" fill="rgba(255,31,27,1)"/>
  <circle cx="12" cy="9" r="1" fill="rgba(255,28,28,1)"/>
  <circle cx="13" cy="9" r="1" fill="rgba(255,22,24,1)"/>
  <circle cx="14" cy="9" r="1" fill="rgba(233,9,13,1)"/>
  <circle cx="15" cy="9" r="1" fill="rgba(212,8,13,0.164706)"/>
  <circle cx="16" cy="9" r="1" fill="none"/>
  <circle cx="17" cy="9" r="1" fill="none"/>
  <circle cx="18" cy="9" r="1" fill="none"/>
  <circle cx="19" cy="9" r="1" fill="none"/>
  <circle cx="20" cy="9" r="1" fill="none"/>
  <circle cx="21" cy="9" r="1" fill="none"/>
  <circle cx="22" cy="9" r="1" fill="none"/>
  <circle cx="23" cy="9" r="1" fill="none"/>
  <circle cx="0" cy="10" r="1" fill="none"/>
  <circle cx="1" cy="10" r="1" fill="none"/>
  <circle cx="2" cy="10" r="1" fill="none"/>
  <circle cx="3" cy="10" r="1" fill="none"/>
  <circle cx="4" cy="10" r="1" fill="none"/>
  <circle cx="5" cy="10" r="1" fill="none"/>
  <circle cx="6" cy="10" r="1" fill="none"/>
  <circle cx="7" cy="10" r="1" fill="rgba(241,0,3,0.901961)"/>
  <circle cx="8" cy="10" r="1" fill="rgba(255,76,68,1)"/>
  <circle cx="9" cy="10" r="1" fill="rgba(255,55,41,1)"/>
  <circle cx="10" cy="10" r="1" fill="rgba(255,35,27,1)"/>
  <circle cx="11" cy="10" r="1" fill="rgba(255,28,25,1)"/>
  <circle cx="12" cy="10" r="1" fill="rgba(255,23,24,1)"/>
  <circle cx="13" cy="10" r="1" fill="rgba(255,19,21,1)"/>
  <circle cx="14" cy="10" r="1" fill="rgba(246,8,12,1)"/>
  <circle cx="15" cy="10" r="1" fill="rgba(208,7,9,0.721569)"/>
  <circle cx="16" cy="10" r="1" fill="none"/>
  <circle cx="17" cy="10" r="1" fill="none"/>
  <circle cx="18" cy="10" r="1" fill="none"/>
  <circle cx="19" cy="10" r="1" fill="none"/>
  <circle cx="20" cy="10" r="1" fill="none"/>
  <circle cx="21" cy="10" r="1" fill="none"/>
  <circle cx="22" cy="10" r="1" fill="none"/>
  <circle cx="23" cy="10" r="1" fill="none"/>
  <circle cx="0" cy="11" r="1" fill="none"/>
  <circle cx="1" cy="11" r="1" fill="none"/>
  <circle cx="2" cy="11" r="1" fill="none"/>
  <circle cx="3" cy="11" r="1" fill="none"/>
  <circle cx="4" cy="11" r="1" fill="none"/>
  <circle cx="5" cy="11" r="1" fill="none"/>
  <circle cx="6" cy="11" r="1" fill="rgba(245,0,3,0.878431)"/>
  <circle cx="7" cy="11" r="1" fill="rgba(254,78,71,1)"/>
  <circle cx="8" cy="11" r="1" fill="rgba(255,104,85,1)"/>
  <circle cx="9" cy="11" r="1" fill="rgba(255,35,23,1)"/>
  <circle cx="10" cy="11" r="1" fill="rgba(255,32,25,1)"/>
  <circle cx="11" cy="11" r="1" fill="rgba(255,28,23,1)"/>
  <circle cx="12" cy="11" r="1" fill="rgba(255,22,22,1)"/>
  <circle cx="13" cy="11" r="1" fill="rgba(255,16,19,1)"/>
  <circle cx="14" cy="11" r="1" fill="rgba(255,17,18,1)"/>
  <circle cx="15" cy="11" r="1" fill="rgba(235,3,8,1)"/>
  <circle cx="16" cy="11" r="1" fill="rgba(203,1,6,0.505882)"/>
  <circle cx="17" cy="11" r="1" fill="none"/>
  <circle cx="18" cy="11" r="1" fill="none"/>
  <circle cx="19" cy="11" r="1" fill="none"/>
  <circle cx="20" cy="11" r="1" fill="none"/>
  <circle cx="21" cy="11" r="1" fill="none"/>
  <circle cx="22" cy="11" r="1" fill="none"/>
  <circle cx="23" cy="11" r="1" fill="none"/>
  <circle cx="0" cy="12" r="1" fill="none"/>
  <circle cx="1" cy="12" r="1" fill="none"/>
  <circle cx="2" cy="12" r="1" fill="none"/>
  <circle cx="3" cy="12" r="1" fill="none"/>
  <circle cx="4" cy="12" r="1" fill="none"/>
  <circle cx="5" cy="12" r="1" fill="rgba(248,0,5,0.65098)"/>
  <circle cx="6" cy="12" r="1" fill="rgba(255,74,65,1)"/>
  <circle cx="7" cy="12" r="1" fill="rgba(255,112,85,1)"/>
  <circle cx="8" cy="12" r="1" fill="rgba(255,40,23,1)"/>
  <circle cx="9" cy="12" r="1" fill="rgba(255,37,24,1)"/>
  <circle cx="10" cy="12" r="1" fill="rgba(255,32,24,1)"/>
  <circle cx="11" cy="12" r="1" fill="rgba(255,23,19,1)"/>
  <circle cx="12" cy="12" r="1" fill="rgba(255,22,22,1)"/>
  <circle cx="13" cy="12" r="1" fill="rgba(255,16,18,1)"/>
  <circle cx="14" cy="12" r="1" fill="rgba(255,14,18,1)"/>
  <circle cx="15" cy="12" r="1" fill="rgba(255,12,18,1)"/>
  <circle cx="16" cy="12" r="1" fill="rgba(219,0,3,1)"/>
  <circle cx="17" cy="12" r="1" fill="rgba(198,0,5,0.203922)"/>
  <circle cx="18" cy="12" r="1" fill="none"/>
  <circle cx="19" cy="12" r="1" fill="none"/>
  <circle cx="20" cy="12" r="1" fill="none"/>
  <circle cx="21" cy="12" r="1" fill="none"/>
  <circle cx="22" cy="12" r="1" fill="none"/>
  <circle cx="23" cy="12" r="1" fill="none"/>
  <circle cx="0" cy="13" r="1" fill="none"/>
  <circle cx="1" cy="13" r="1" fill="none"/>
  <circle cx="2" cy="13" r="1" fill="none"/>
  <circle cx="3" cy="13" r="1" fill="none"/>
  <circle cx="4" cy="13" r="1" fill="rgba(252,0,3,0.501961)"/>
  <circle cx="5" cy="13" r="1" fill="rgba(253,37,38,1)"/>
  <circle cx="6" cy="13" r="1" fill="rgba(255,125,96,1)"/>
  <circle cx="7" cy="13" r="1" fill="rgba(255,45,23,1)"/>
  <circle cx="8" cy="13" r="1" fill="rgba(255,43,25,1)"/>
  <circle cx="9" cy="13" r="1" fill="rgba(255,37,24,1)"/>
  <circle cx="10" cy="13" r="1" fill="rgba(255,28,19,1)"/>
  <circle cx="11" cy="13" r="1" fill="rgba(233,1,6,0.898039)"/>
  <circle cx="12" cy="13" r="1" fill="rgba(250,7,8,0.976471)"/>
  <circle cx="13" cy="13" r="1" fill="rgba(255,15,16,1)"/>
  <circle cx="14" cy="13" r="1" fill="rgba(255,13,17,1)"/>
  <circle cx="15" cy="13" r="1" fill="rgba(255,10,16,1)"/>
  <circle cx="16" cy="13" r="1" fill="rgba(255,6,12,1)"/>
  <circle cx="17" cy="13" r="1" fill="rgba(195,0,4,0.941176)"/>
  <circle cx="18" cy="13" r="1" fill="none"/>
  <circle cx="19" cy="13" r="1" fill="none"/>
  <circle cx="20" cy="13" r="1" fill="none"/>
  <circle cx="21" cy="13" r="1" fill="none"/>
  <circle cx="22" cy="13" r="1" fill="none"/>
  <circle cx="23" cy="13" r="1" fill="none"/>
  <circle cx="0" cy="14" r="1" fill="none"/>
  <circle cx="1" cy="14" r="1" fill="none"/>
  <circle cx="2" cy="14" r="1" fill="none"/>
  <circle cx="3" cy="14" r="1" fill="rgba(254,0,4,0.196078)"/>
  <circle cx="4" cy="14" r="1" fill="rgba(255,14,17,1)"/>
  <circle cx="5" cy="14" r="1" fill="rgba(255,145,117,1)"/>
  <circle cx="6" cy="14" r="1" fill="rgba(255,56,29,1)"/>
  <circle cx="7" cy="14" r="1" fill="rgba(255,49,27,1)"/>
  <circle cx="8" cy="14" r="1" fill="rgba(255,43,25,1)"/>
  <circle cx="9" cy="14" r="1" fill="rgba(255,36,24,1)"/>
  <circle cx="10" cy="14" r="1" fill="rgba(245,8,7,1)"/>
  <circle cx="11" cy="14" r="1" fill="rgba(227,0,7,0.0313725)"/>
  <circle cx="12" cy="14" r="1" fill="rgba(217,0,5,0.109804)"/>
  <circle cx="13" cy="14" r="1" fill="rgba(244,2,7,1)"/>
  <circle cx="14" cy="14" r="1" fill="rgba(255,13,17,1)"/>
  <circle cx="15" cy="14" r="1" fill="rgba(255,9,15,1)"/>
  <circle cx="16" cy="14" r="1" fill="rgba(255,7,14,1)"/>
  <circle cx="17" cy="14" r="1" fill="rgba(248,0,5,1)"/>
  <circle cx="18" cy="14" r="1" fill="rgba(184,0,4,0.568627)"/>
  <circle cx="19" cy="14" r="1" fill="none"/>
  <circle cx="20" cy="14" r="1" fill="none"/>
  <circle cx="21" cy="14" r="1" fill="none"/>
  <circle cx="22" cy="14" r="1" fill="none"/>
  <circle cx="23" cy="14" r="1" fill="none"/>
  <circle cx="0" cy="15" r="1" fill="none"/>
  <circle cx="1" cy="15" r="1" fill="none"/>
  <circle cx="2" cy="15" r="1" fill="none"/>
  <circle cx="3" cy="15" r="1" fill="rgba(255,0,4,1)"/>
  <circle cx="4" cy="15" r="1" fill="rgba(255,152,127,1)"/>
  <circle cx="5" cy="15" r="1" fill="rgba(255,61,33,1)"/>
  <circle cx="6" cy="15" r="1" fill="rgba(255,56,30,1)"/>
  <circle cx="7" cy="15" r="1" fill="rgba(255,50,28,1)"/>
  <circle cx="8" cy="15" r="1" fill="rgba(255,44,25,1)"/>
  <circle cx="9" cy="15" r="1" fill="rgba(255,21,12,1)"/>
  <circle cx="10" cy="15" r="1" fill="rgba(229,0,6,0.427451)"/>
  <circle cx="11" cy="15" r="1" fill="none"/>
  <circle cx="12" cy="15" r="1" fill="none"/>
  <circle cx="13" cy="15" r="1" fill="rgba(212,0,6,0.121569)"/>
  <circle cx="14" cy="15" r="1" fill="rgba(251,1,6,1)"/>
  <circle cx="15" cy="15" r="1" fill="rgba(255,9,15,1)"/>
  <circle cx="16" cy="15" r="1" fill="rgba(255,7,14,1)"/>
  <circle cx="17" cy="15" r="1" fill="rgba(255,8,15,1)"/>
  <circle cx="18" cy="15" r="1" fill="rgba(206,0,4,1)"/>
  <circle cx="19" cy="15" r="1" fill="rgba(180,0,4,0.207843)"/>
  <circle cx="20" cy="15" r="1" fill="none"/>
  <circle cx="21" cy="15" r="1" fill="none"/>
  <circle cx="22" cy="15" r="1" fill="none"/>
  <circle cx="23" cy="15" r="1" fill="none"/>
  <circle cx="0" cy="16" r="1" fill="none"/>
  <circle cx="1" cy="16" r="1" fill="none"/>
  <circle cx="2" cy="16" r="1" fill="rgba(255,0,1,0.803922)"/>
  <circle cx="3" cy="16" r="1" fill="rgba(255,122,105,1)"/>
  <circle cx="4" cy="16" r="1" fill="rgba(255,84,52,1)"/>
  <circle cx="5" cy="16" r="1" fill="rgba(255,60,33,1)"/>
  <circle cx="6" cy="16" r="1" fill="rgba(255,57,31,1)"/>
  <circle cx="7" cy="16" r="1" fill="rgba(255,50,28,1)"/>
  <circle cx="8" cy="16" r="1" fill="rgba(255,40,23,1)"/>
  <circle cx="9" cy="16" r="1" fill="rgba(239,0,5,0.796078)"/>
  <circle cx="10" cy="16" r="1" fill="none"/>
  <circle cx="11" cy="16" r="1" fill="none"/>
  <circle cx="12" cy="16" r="1" fill="none"/>
  <circle cx="13" cy="16" r="1" fill="none"/>
  <circle cx="14" cy="16" r="1" fill="rgba(208,0,5,0.352941)"/>
  <circle cx="15" cy="16" r="1" fill="rgba(248,0,5,1)"/>
  <circle cx="16" cy="16" r="1" fill="rgba(255,8,15,1)"/>
  <circle cx="17" cy="16" r="1" fill="rgba(255,7,14,1)"/>
  <circle cx="18" cy="16" r="1" fill="rgba(255,2,6,1)"/>
  <circle cx="19" cy="16" r="1" fill="rgba(172,0,4,0.792157)"/>
  <circle cx="20" cy="16" r="1" fill="none"/>
  <circle cx="21" cy="16" r="1" fill="none"/>
  <circle cx="22" cy="16" r="1" fill="none"/>
  <circle cx="23" cy="16" r="1" fill="none"/>
  <circle cx="0" cy="17" r="1" fill="none"/>
  <circle cx="1" cy="17" r="1" fill="rgba(255,0,7,0.360784)"/>
  <circle cx="2" cy="17" r="1" fill="rgba(255,72,66,1)"/>
  <circle cx="3" cy="17" r="1" fill="rgba(255,117,82,1)"/>
  <circle cx="4" cy="17" r="1" fill="rgba(255,69,38,1)"/>
  <circle cx="5" cy="17" r="1" fill="rgba(255,61,35,1)"/>
  <circle cx="6" cy="17" r="1" fill="rgba(255,57,31,1)"/>
  <circle cx="7" cy="17" r="1" fill="rgba(255,52,29,1)"/>
  <circle cx="8" cy="17" r="1" fill="rgba(251,16,11,1)"/>
  <circle cx="9" cy="17" r="1" fill="rgba(235,0,6,0.0509804)"/>
  <circle cx="10" cy="17" r="1" fill="none"/>
  <circle cx="11" cy="17" r="1" fill="none"/>
  <circle cx="12" cy="17" r="1" fill="none"/>
  <circle cx="13" cy="17" r="1" fill="none"/>
  <circle cx="14" cy="17" r="1" fill="none"/>
  <circle cx="15" cy="17" r="1" fill="rgba(200,0,6,0.345098)"/>
  <circle cx="16" cy="17" r="1" fill="rgba(253,0,5,1)"/>
  <circle cx="17" cy="17" r="1" fill="rgba(255,7,15,1)"/>
  <circle cx="18" cy="17" r="1" fill="rgba(255,12,16,1)"/>
  <circle cx="19" cy="17" r="1" fill="rgba(217,0,2,1)"/>
  <circle cx="20" cy="17" r="1" fill="rgba(173,0,3,0.207843)"/>
  <circle cx="21" cy="17" r="1" fill="none"/>
  <circle cx="22" cy="17" r="1" fill="none"/>
  <circle cx="23" cy="17" r="1" fill="none"/>
  <circle cx="0" cy="18" r="1" fill="none"/>
  <circle cx="1" cy="18" r="1" fill="rgba(255,0,5,0.788235)"/>
  <circle cx="2" cy="18" r="1" fill="rgba(255,144,113,1)"/>
  <circle cx="3" cy="18" r="1" fill="rgba(255,75,40,1)"/>
  <circle cx="4" cy="18" r="1" fill="rgba(255,71,40,1)"/>
  <circle cx="5" cy="18" r="1" fill="rgba(255,61,35,1)"/>
  <circle cx="6" cy="18" r="1" fill="rgba(255,58,31,1)"/>
  <circle cx="7" cy="18" r="1" fill="rgba(255,43,24,1)"/>
  <circle cx="8" cy="18" r="1" fill="rgba(237,0,5,0.498039)"/>
  <circle cx="9" cy="18" r="1" fill="none"/>
  <circle cx="10" cy="18" r="1" fill="none"/>
  <circle cx="11" cy="18" r="1" fill="none"/>
  <circle cx="12" cy="18" r="1" fill="none"/>
  <circle cx="13" cy="18" r="1" fill="none"/>
  <circle cx="14" cy="18" r="1" fill="none"/>
  <circle cx="15" cy="18" r="1" fill="none"/>
  <circle cx="16" cy="18" r="1" fill="rgba(202,0,6,0.647059)"/>
  <circle cx="17" cy="18" r="1" fill="rgba(255,0,5,1)"/>
  <circle cx="18" cy="18" r="1" fill="rgba(255,12,16,1)"/>
  <circle cx="19" cy="18" r="1" fill="rgba(255,8,7,1)"/>
  <circle cx="20" cy="18" r="1" fill="rgba(164,0,2,0.717647)"/>
  <circle cx="21" cy="18" r="1" fill="none"/>
  <circle cx="22" cy="18" r="1" fill="none"/>
  <circle cx="23" cy="18" r="1" fill="none"/>
  <circle cx="0" cy="19" r="1" fill="none"/>
  <circle cx="1" cy="19" r="1" fill="rgba(255,31,35,1)"/>
  <circle cx="2" cy="19" r="1" fill="rgba(255,118,78,1)"/>
  <circle cx="3" cy="19" r="1" fill="rgba(255,77,43,1)"/>
  <circle cx="4" cy="19" r="1" fill="rgba(255,72,41,1)"/>
  <circle cx="5" cy="19" r="1" fill="rgba(255,61,35,1)"/>
  <circle cx="6" cy="19" r="1" fill="rgba(255,60,32,1)"/>
  <circle cx="7" cy="19" r="1" fill="rgba(249,11,9,0.937255)"/>
  <circle cx="8" cy="19" r="1" fill="none"/>
  <circle cx="9" cy="19" r="1" fill="none"/>
  <circle cx="10" cy="19" r="1" fill="none"/>
  <circle cx="11" cy="19" r="1" fill="none"/>
  <circle cx="12" cy="19" r="1" fill="none"/>
  <circle cx="13" cy="19" r="1" fill="none"/>
  <circle cx="14" cy="19" r="1" fill="none"/>
  <circle cx="15" cy="19" r="1" fill="none"/>
  <circle cx="16" cy="19" r="1" fill="none"/>
  <circle cx="17" cy="19" r="1" fill="rgba(216,0,3,0.866667)"/>
  <circle cx="18" cy="19" r="1" fill="rgba(255,12,16,1)"/>
  <circle cx="19" cy="19" r="1" fill="rgba(255,20,20,1)"/>
  <circle cx="20" cy="19" r="1" fill="rgba(208,0,0,1)"/>
  <circle cx="21" cy="19" r="1" fill="rgba(164,0,3,0.0666667)"/>
  <circle cx="22" cy="19" r="1" fill="none"/>
  <circle cx="23" cy="19" r="1" fill="none"/>
  <circle cx="0" cy="20" r="1" fill="none"/>
  <circle cx="1" cy="20" r="1" fill="rgba(255,30,32,1)"/>
  <circle cx="2" cy="20" r="1" fill="rgba(255,91,50,1)"/>
  <circle cx="3" cy="20" r="1" fill="rgba(255,79,44,1)"/>
  <circle cx="4" cy="20" r="1" fill="rgba(255,72,41,1)"/>
  <circle cx="5" cy="20" r="1" fill="rgba(255,63,35,1)"/>
  <circle cx="6" cy="20" r="1" fill="rgba(255,40,22,1)"/>
  <circle cx="7" cy="20" r="1" fill="rgba(243,0,6,0.352941)"/>
  <circle cx="8" cy="20" r="1" fill="none"/>
  <circle cx="9" cy="20" r="1" fill="none"/>
  <circle cx="10" cy="20" r="1" fill="none"/>
  <circle cx="11" cy="20" r="1" fill="none"/>
  <circle cx="12" cy="20" r="1" fill="none"/>
  <circle cx="13" cy="20" r="1" fill="none"/>
  <circle cx="14" cy="20" r="1" fill="none"/>
  <circle cx="15" cy="20" r="1" fill="none"/>
  <circle cx="16" cy="20" r="1" fill="none"/>
  <circle cx="17" cy="20" r="1" fill="rgba(186,0,4,0.12549)"/>
  <circle cx="18" cy="20" r="1" fill="rgba(234,0,2,1)"/>
  <circle cx="19" cy="20" r="1" fill="rgba(255,20,20,1)"/>
  <circle cx="20" cy="20" r="1" fill="rgba(239,9,5,1)"/>
  <circle cx="21" cy="20" r="1" fill="rgba(161,0,3,0.356863)"/>
  <circle cx="22" cy="20" r="1" fill="none"/>
  <circle cx="23" cy="20" r="1" fill="none"/>
  <circle cx="0" cy="21" r="1" fill="none"/>
  <circle cx="1" cy="21" r="1" fill="rgba(255,6,13,0.654902)"/>
  <circle cx="2" cy="21" r="1" fill="rgba(255,87,51,1)"/>
  <circle cx="3" cy="21" r="1" fill="rgba(255,81,46,1)"/>
  <circle cx="4" cy="21" r="1" fill="rgba(255,74,42,1)"/>
  <circle cx="5" cy="21" r="1" fill="rgba(255,62,35,1)"/>
  <circle cx="6" cy="21" r="1" fill="rgba(249,2,6,0.803922)"/>
  <circle cx="7" cy="21" r="1" fill="none"/>
  <circle cx="8" cy="21" r="1" fill="none"/>
  <circle cx="9" cy="21" r="1" fill="none"/>
  <circle cx="10" cy="21" r="1" fill="none"/>
  <circle cx="11" cy="21" r="1" fill="none"/>
  <circle cx="12" cy="21" r="1" fill="none"/>
  <circle cx="13" cy="21" r="1" fill="none"/>
  <circle cx="14" cy="21" r="1" fill="none"/>
  <circle cx="15" cy="21" r="1" fill="none"/>
  <circle cx="16" cy="21" r="1" fill="none"/>
  <circle cx="17" cy="21" r="1" fill="none"/>
  <circle cx="18" cy="21" r="1" fill="rgba(193,0,5,0.568627)"/>
  <circle cx="19" cy="21" r="1" fill="rgba(255,9,9,1)"/>
  <circle cx="20" cy="21" r="1" fill="rgba(255,19,11,1)"/>
  <circle cx="21" cy="21" r="1" fill="rgba(160,0,1,0.647059)"/>
  <circle cx="22" cy="21" r="1" fill="none"/>
  <circle cx="23" cy="21" r="1" fill="none"/>
  <circle cx="0" cy="22" r="1" fill="none"/>
  <circle cx="1" cy="22" r="1" fill="none"/>
  <circle cx="2" cy="22" r="1" fill="rgba(255,25,21,0.882353)"/>
  <circle cx="3" cy="22" r="1" fill="rgba(255,60,36,1)"/>
  <circle cx="4" cy="22" r="1" fill="rgba(255,46,29,1)"/>
  <circle cx="5" cy="22" r="1" fill="rgba(252,8,10,0.729412)"/>
  <circle cx="6" cy="22" r="1" fill="none"/>
  <circle cx="7" cy="22" r="1" fill="none"/>
  <circle cx="8" cy="22" r="1" fill="none"/>
  <circle cx="9" cy="22" r="1" fill="none"/>
  <circle cx="10" cy="22" r="1" fill="none"/>
  <circle cx="11" cy="22" r="1" fill="none"/>
  <circle cx="12" cy="22" r="1" fill="none"/>
  <circle cx="13" cy="22" r="1" fill="none"/>
  <circle cx="14" cy="22" r="1" fill="none"/>
  <circle cx="15" cy="22" r="1" fill="none"/>
  <circle cx="16" cy="22" r="1" fill="none"/>
  <circle cx="17" cy="22" r="1" fill="none"/>
  <circle cx="18" cy="22" r="1" fill="none"/>
  <circle cx="19" cy="22" r="1" fill="rgba(218,0,1,0.941176)"/>
  <circle cx="20" cy="22" r="1" fill="rgba(255,32,23,1)"/>
  <circle cx="21" cy="22" r="1" fill="rgba(158,0,1,0.796078)"/>
  <circle cx="22" cy="22" r="1" fill="none"/>
  <circle cx="23" cy="22" r="1" fill="none"/>
  <circle cx="0" cy="23" r="1" fill="none"/>
  <circle cx="1" cy="23" r="1" fill="none"/>
  <circle cx="2" cy="23" r="1" fill="none"/>
  <circle cx="3" cy="23" r="1" fill="rgba(254,0,4,0.219608)"/>
  <circle cx="4" cy="23" r="1" fill="rgba(253,0,5,0.141176)"/>
  <circle cx="5" cy="23" r="1" fill="none"/>
  <circle cx="6" cy="23" r="1" fill="none"/>
  <circle cx="7" cy="23" r="1" fill="none"/>
  <circle cx="8" cy="23" r="1" fill="none"/>
  <circle cx="9" cy="23" r="1" fill="none"/>
  <circle cx="10" cy="23" r="1" fill="none"/>
  <circle cx="11" cy="23" r="1" fill="none"/>
  <circle cx="12" cy="23" r="1" fill="none"/>
  <circle cx="13" cy="23" r="1" fill="none"/>
  <circle cx="14" cy="23" r="1" fill="none"/>
  <circle cx="15" cy="23" r="1" fill="none"/>
  <circle cx="16" cy="23" r="1" fill="none"/>
  <circle cx="17" cy="23" r="1" fill="none"/>
  <circle cx="18" cy="23" r="1" fill="none"/>
  <circle cx="19" cy="23" r="1" fill="rgba(170,0,2,0.258824)"/>
  <circle cx="20" cy="23" r="1" fill="rgba(238,7,6,1)"/>
  <circle cx="21" cy="23" r="1" fill="rgba(161,0,1,0.635294)"/>
  <circle cx="22" cy="23" r="1" fill="none"/>
  <circle cx="23" cy="23" r="1" fill="none"/>
</svg>
