<?xml version="1.0" ?><svg style="enable-background:new 0 0 256 256;" version="1.1" viewBox="0 0 256 256" xml:space="preserve" xmlns="http://www.w3.org/2000/svg" xmlns:xlink="http://www.w3.org/1999/xlink"><style type="text/css">
	.st0{fill:#00A388;}
	.st1{fill:#EA685E;stroke:#00886F;stroke-width:15;stroke-miterlimit:10;}
	.st2{fill:#E8E8E8;}
	.st3{fill:#FFFFFF;stroke:#00886F;stroke-width:15;stroke-miterlimit:10;}
	.st4{fill:#00886F;}
	.st5{fill:#FFFFFF;}
	.st6{fill:#CCCCCC;}
	.st7{fill:none;stroke:#00A388;stroke-width:4;stroke-miterlimit:10;}
	.st8{fill:#EA685E;}
	.st9{fill:#FFAB80;}
	.st10{fill:#2C3E50;}
	.st11{fill:#4B687F;}
	.st12{fill:none;stroke:#3E5063;stroke-width:4;stroke-miterlimit:10;}
	.st13{fill:#FFD766;}
	.st14{fill:#FFE6D3;}
	.st15{fill:#F09A79;}
	.st16{fill:#C91E01;}
	.st17{fill:#EA3B28;}
	.st18{fill:#0F627F;}
	.st19{fill:#005670;}
	.st20{filter:url(#Adobe_OpacityMaskFilter);}
	.st21{mask:url(#SVGID_2_);}
	.st22{fill:#8C623B;}
	.st23{fill:#E6E6E6;stroke:#005670;stroke-width:16;stroke-miterlimit:10;}
	.st24{opacity:0.6;}
	.st25{fill:#E6E6E6;}
	.st26{fill:#FFEC82;}
	.st27{fill:#FFCF3A;}
	.st28{filter:url(#Adobe_OpacityMaskFilter_1_);}
	.st29{mask:url(#SVGID_1_);}
	.st30{fill:#603813;}
	.st31{fill:#F2F2F2;}
	.st32{fill:#666666;}
</style><g id="Layer_2"><circle class="st2" cx="128" cy="128" r="120"/></g><g id="Layer_1"><g><g><path class="st18" d="M180.32634,172.6539c0,0.391342,0,0.782867-0.014511,1.174393     c-0.289917,13.542892-5.683853,26.621857-15.253952,36.467377c-1.580444,1.638321-4.262894,0.029022-3.639496-2.160477     c1.841522-6.510452,2.291092-13.281998,1.377411-19.893875c-0.289917-2.131622-0.724991-4.24855-1.30484-6.336639v-0.043533     c-1.493546-5.364914-3.914917-10.526978-7.249969-15.210419l23.794266-9.55542     c1.072983,3.581619,1.769119,7.221115,2.073563,10.8461v0.043365c0.072571,0.783051,0.130447,1.551407,0.159485,2.334473     C180.311829,171.102295,180.32634,171.870834,180.32634,172.6539z"/></g><g><ellipse class="st18" cx="128" cy="117.53318" rx="72.5" ry="72.5" transform="matrix(0.707107 -0.707107 0.707107 0.707107 -45.618176 124.934341)"/></g><g><g><path class="st19" d="M118.435295,140.740295c0.04068-5.965317,0.876099-10.251938,2.503136-12.859917      c1.627052-2.606407,5.026634-5.891785,10.200333-9.85614c3.003784-2.503143,5.381775-5.120499,7.133972-7.853615      c1.752197-2.731552,2.628281-5.851097,2.628281-9.355515c0-3.879883-0.991867-6.893044-2.972458-9.042625      c-1.982193-2.148003-4.89209-3.222801-8.729752-3.222801c-3.171158,0-5.81041,0.89801-7.916191,2.69088      c-2.107346,1.794441-3.182129,4.505669-3.222809,8.135239H99.724274c0.082909-8.343307,2.805099-14.621506,8.166512-18.836189      c5.359856-4.213112,12.462524-6.320442,21.308022-6.320442c9.552643,0,16.936935,2.326355,22.152878,6.977524      c5.214355,4.652725,7.822311,11.129608,7.822311,19.430664c0,5.381767-1.523773,10.284798-4.568237,14.705994      c-3.046021,4.422752-6.96814,8.197815-11.764786,11.326736c-2.628311,2.00251-4.317932,3.964348-5.068863,5.882393      c-0.750946,1.919601-1.126419,4.652725-1.126419,8.1978L118.435295,140.740295z M136.770828,166.647873h-18.398125v-15.644684      h18.398125V166.647873z"/></g></g><g><g><path class="st5" d="M116.985298,137.840317c0.04068-5.965317,0.876106-10.251953,2.503143-12.859924      c1.627052-2.606407,5.026634-5.891785,10.200325-9.85614c3.003784-2.503143,5.381775-5.120499,7.133972-7.853615      c1.752197-2.731552,2.628296-5.851097,2.628296-9.355522c0-3.879875-0.991882-6.893036-2.972473-9.042618      c-1.982193-2.148003-4.89209-3.222801-8.729729-3.222801c-3.171181,0-5.810432,0.89801-7.916199,2.69088      c-2.107346,1.794441-3.182129,4.505669-3.222809,8.135239H98.274277c0.082916-8.343315,2.805107-14.621506,8.166512-18.836189      c5.359863-4.213112,12.462532-6.320442,21.308044-6.320442c9.552635,0,16.936913,2.326347,22.152855,6.977524      c5.214371,4.652718,7.822327,11.129608,7.822327,19.430664c0,5.381767-1.523788,10.284798-4.568253,14.705994      c-3.046005,4.422752-6.96814,8.197807-11.764786,11.326736c-2.628311,2.002518-4.317932,3.964355-5.068863,5.882385      c-0.750946,1.919601-1.126419,4.65274-1.126419,8.1978h-18.210396V137.840317z M135.320847,163.747879h-18.39814V148.10321      h18.39814V163.747879z"/></g></g><g><path class="st19" d="M180.32634,172.6539c0,0.391342,0,0.782867-0.014511,1.174393     c-4.639908,4.320953-11.628967,10.671951-17.516037,14.413025c-0.289917-2.131622-0.724991-4.24855-1.30484-6.336639v-0.043533     c6.394333-3.334885,12.397507-7.68486,17.776932-13.064453c0.289932-0.289932,0.565338-0.565353,0.840927-0.85527v0.043365     c0.072571,0.783051,0.130447,1.551407,0.159485,2.334473C180.311829,171.102295,180.32634,171.870834,180.32634,172.6539z"/></g></g></g></svg>