<?xml version="1.0" ?><!DOCTYPE svg  PUBLIC '-//W3C//DTD SVG 1.1//EN'  'http://www.w3.org/Graphics/SVG/1.1/DTD/svg11.dtd'><svg enable-background="new 0 0 500 500" height="500px" id="Layer_1" version="1.1" viewBox="0 0 500 500" width="500px" xml:space="preserve" xmlns="http://www.w3.org/2000/svg" xmlns:xlink="http://www.w3.org/1999/xlink"><path clip-rule="evenodd" d="M285.065,75.733l-16.892,131.659  c0,13.531,10.904,24.437,24.434,24.437l131.654-16.902c3.9-0.542,7.813-2.361,10.813-5.449c7.631-7.63,7.631-19.893,0-27.532  l-21.984-21.987l48.876-48.789c8.086-8.083,8.086-21.169,0-29.252l-43.883-43.883c-8.09-8.083-21.168-8.083-29.261,0l-48.781,48.789  l-21.985-21.898c-7.631-7.63-19.903-7.63-27.534,0C287.436,67.926,285.616,71.831,285.065,75.733z M214.929,75.733  c-0.541-3.902-2.359-7.807-5.449-10.807c-7.63-7.63-19.898-7.63-27.529,0l-21.987,21.898l-48.789-48.789  c-8.083-8.083-21.17-8.083-29.255,0L38.037,81.918c-8.091,8.083-8.091,21.17,0,29.252l48.879,48.789l-21.985,21.987  c-7.63,7.639-7.63,19.902,0,27.532c3,3.087,6.902,4.906,10.807,5.449l131.659,16.902c13.531,0,24.434-10.905,24.434-24.437  L214.929,75.733z M285.065,424.264c0.551,3.904,2.37,7.81,5.456,10.809c7.631,7.631,19.903,7.631,27.534,0l21.985-21.897  l48.781,48.789c8.093,8.084,21.171,8.084,29.261,0l43.883-43.883c8.086-8.081,8.086-21.173,0-29.254l-48.876-48.788l21.984-21.985  c7.631-7.631,7.631-19.903,0-27.534c-2.999-3.087-6.912-4.906-10.813-5.448l-131.654-16.899c-13.529,0-24.434,10.904-24.434,24.434  L285.065,424.264z M214.929,424.264l16.902-131.658c0-13.529-10.903-24.434-24.434-24.434L75.738,285.071  c-3.905,0.542-7.808,2.361-10.807,5.448c-7.63,7.631-7.63,19.903,0,27.534l21.985,21.985l-48.879,48.788  c-8.091,8.081-8.091,21.173,0,29.254l43.883,43.883c8.085,8.084,21.171,8.084,29.255,0l48.789-48.789l21.987,21.897  c7.631,7.631,19.899,7.631,27.529,0C212.57,432.073,214.389,428.168,214.929,424.264z" fill="#010101" fill-rule="evenodd"/></svg>