<?xml version="1.0" encoding="iso-8859-1"?>
<!-- Generator: Adobe Illustrator 18.1.1, SVG Export Plug-In . SVG Version: 6.00 Build 0)  -->
<svg version="1.1" id="Capa_1" xmlns="http://www.w3.org/2000/svg" xmlns:xlink="http://www.w3.org/1999/xlink" x="0px" y="0px"
	 viewBox="0 0 31.004 31.004" style="enable-background:new 0 0 31.004 31.004;" xml:space="preserve">
<g>
	<path d="M22.397,31.004V26.49c0-0.938,0.76-1.699,1.698-1.699l3.5-0.1L22.397,31.004z"/>
	<path d="M25.897,0H5.107C4.169,0,3.409,0.76,3.409,1.695v27.611c0,0.938,0.76,1.697,1.698,1.697h15.604v-6.02
		c0-0.936,0.76-1.697,1.696-1.697h5.188V1.695C27.596,0.76,26.836,0,25.897,0z M14.941,25.611h-2.892v2.951H9.533v-2.951H6.607
		v-2.518h2.926v-2.865h2.516v2.865h2.893v2.518H14.941z"/>
	<g>
	</g>
	<g>
	</g>
	<g>
	</g>
	<g>
	</g>
	<g>
	</g>
	<g>
	</g>
	<g>
	</g>
	<g>
	</g>
	<g>
	</g>
	<g>
	</g>
	<g>
	</g>
	<g>
	</g>
	<g>
	</g>
	<g>
	</g>
	<g>
	</g>
</g>
<g>
</g>
<g>
</g>
<g>
</g>
<g>
</g>
<g>
</g>
<g>
</g>
<g>
</g>
<g>
</g>
<g>
</g>
<g>
</g>
<g>
</g>
<g>
</g>
<g>
</g>
<g>
</g>
<g>
</g>
</svg>
