<?xml version="1.0" encoding="iso-8859-1"?>
<!-- Generator: Adobe Illustrator 19.0.0, SVG Export Plug-In . SVG Version: 6.00 Build 0)  -->
<svg xmlns="http://www.w3.org/2000/svg" xmlns:xlink="http://www.w3.org/1999/xlink" version="1.1" id="Layer_1" x="0px" y="0px" viewBox="0 0 512 512" style="enable-background:new 0 0 512 512;" xml:space="preserve" width="512px" height="512px">
<g>
	<g>
		<path d="M508.26,248.272L321.183,100.58c-2.962-2.336-7-2.774-10.404-1.135c-3.394,1.644-5.548,5.086-5.548,8.861v68.923H29.558    C13.26,177.229,0,190.508,0,206.825v98.346c0,16.317,13.26,29.596,29.558,29.596h275.673v68.923c0,3.774,2.154,7.216,5.548,8.861    c1.365,0.663,2.836,0.986,4.298,0.986c2.173,0,4.327-0.721,6.106-2.12L508.26,263.724c2.356-1.865,3.74-4.712,3.74-7.726    C512,252.984,510.615,250.137,508.26,248.272z M324.923,383.373v-58.452c0-5.438-4.404-9.846-9.846-9.846H29.558    c-5.442,0-9.865-4.442-9.865-9.904v-98.346c0-5.462,4.423-9.904,9.865-9.904h285.519c5.442,0,9.846-4.409,9.846-9.846v-58.452    L486.26,255.998L324.923,383.373z" fill="#91DC5A"/>
	</g>
</g>
<g>
</g>
<g>
</g>
<g>
</g>
<g>
</g>
<g>
</g>
<g>
</g>
<g>
</g>
<g>
</g>
<g>
</g>
<g>
</g>
<g>
</g>
<g>
</g>
<g>
</g>
<g>
</g>
<g>
</g>
</svg>
