<?xml version="1.0" encoding="iso-8859-1"?>
<!-- Generator: Adobe Illustrator 18.1.1, SVG Export Plug-In . SVG Version: 6.00 Build 0)  -->
<svg xmlns="http://www.w3.org/2000/svg" xmlns:xlink="http://www.w3.org/1999/xlink" version="1.1" id="Capa_1" x="0px" y="0px" viewBox="0 0 30 30" style="enable-background:new 0 0 30 30;" xml:space="preserve" width="512px" height="512px">
<g>
	<g>
		<path d="M24,12.523V9.899c2.281-0.463,4-2.48,4-4.899c0-2.762-2.238-5-5-5s-5,2.238-5,5    c0,2.419,1.719,4.436,4,4.899v2.159C21.671,12.022,21.338,12,21,12c-2.126,0-4.075,0.74-5.615,1.972L9.169,7.755    C9.691,6.964,10,6.019,10,5c0-2.762-2.239-5-5-5S0,2.238,0,5c0,2.419,1.718,4.436,4,4.899V18.1c-2.282,0.463-4,2.48-4,4.9    c0,2.764,2.239,5,5,5s5-2.236,5-5c0-2.42-1.718-4.438-4-4.898V9.9c0.638-0.13,1.229-0.383,1.754-0.73l6.217,6.217    C12.74,16.925,12,18.874,12,21c0,4.971,4.027,8.998,9,9c4.971-0.002,8.998-4.029,9-9C29.998,17.081,27.493,13.759,24,12.523z     M21,27.883c-3.801-0.009-6.876-3.084-6.885-6.883c0.009-3.801,3.084-6.876,6.885-6.884c3.799,0.008,6.874,3.083,6.883,6.884    C27.874,24.799,24.799,27.874,21,27.883z" fill="#FFFFFF"/>
		<polygon points="22.002,20 22.002,16 20,16 20,20 16,20 16,22 20,22 20,26 22.002,26 22.002,22 26,22     26,20   " fill="#FFFFFF"/>
	</g>
</g>
<g>
</g>
<g>
</g>
<g>
</g>
<g>
</g>
<g>
</g>
<g>
</g>
<g>
</g>
<g>
</g>
<g>
</g>
<g>
</g>
<g>
</g>
<g>
</g>
<g>
</g>
<g>
</g>
<g>
</g>
</svg>
