<?xml version="1.0" ?><!DOCTYPE svg  PUBLIC '-//W3C//DTD SVG 1.1//EN'  'http://www.w3.org/Graphics/SVG/1.1/DTD/svg11.dtd'><svg enable-background="new 0 0 24 24" height="24px" id="Layer_1" version="1.1" viewBox="0 0 24 24" width="24px" xml:space="preserve" xmlns="http://www.w3.org/2000/svg" xmlns:xlink="http://www.w3.org/1999/xlink"><g><path d="M24,14.098c0-2.141-1.196-4.053-3.067-5.33c0.131,0.596,0.208,1.205,0.208,1.832   c0,4.84-4.109,8.877-9.522,9.744c1.145,0.461,2.426,0.732,3.793,0.732c1.285,0,2.505-0.236,3.601-0.65   c1.392,0.469,2.908,0.592,4.164,0.592c-0.655-0.779-1.105-1.551-1.431-2.225C23.142,17.555,24,15.908,24,14.098z" fill="#030203"/><path d="M18.891,10.6c0-4.237-4.227-7.676-9.445-7.676C4.228,2.924,0,6.362,0,10.6c0,2.209,1.156,4.197,2.998,5.596   c-0.346,0.895-0.932,2.063-1.926,3.258c1.887,0,4.315-0.246,6.188-1.396c0.704,0.137,1.433,0.214,2.187,0.214   C14.663,18.271,18.891,14.836,18.891,10.6z" fill="#030203"/></g></svg>